<svg xmlns="http://www.w3.org/2000/svg" width="31.045" height="30.585" viewBox="0 0 31.045 30.585">
  <defs>
    <style>
      .cls-1 {
        fill: #666;
      }
    </style>
  </defs>
  <g id="그룹_32" data-name="그룹 32" transform="translate(-171.511 -720.806)">
    <g id="그룹_14" data-name="그룹 14" transform="translate(-260.392 -30.48)">
      <path id="패스_11" data-name="패스 11" class="cls-1" d="M490.945,835.669q-2.431.105-4.862.212c-.135.006-.17-.04-.152-.169.09-.646.172-1.293.26-1.939q.188-1.386.38-2.772.221-1.612.443-3.224c.085-.622.172-1.244.247-1.867a.8.8,0,0,1,.284-.559q5.314-4.565,10.615-9.146a6.581,6.581,0,1,1,8.491,10.055q-4.917,4.269-9.86,8.508c-.2.175-.41.346-.607.528a.579.579,0,0,1-.394.158q-2.221.09-4.442.19l-.4.019Zm-1.492-10.219.025.05c.447.043.895.088,1.342.13q1,.094,2,.183c.107.009.167.041.16.167-.063,1.108-.118,2.217-.186,3.325-.01.169.02.23.2.245,1.087.092,2.173.2,3.26.3.162.014.214.071.2.238-.063,1.023-.116,2.046-.17,3.069,0,.087,0,.174,0,.3l7.976-6.88c-.061-.077-.108-.139-.159-.2l-2.58-2.992q-1.989-2.306-3.976-4.615a.842.842,0,0,1-.095-.231Zm-.874.839-.04,0q-.239,1.765-.48,3.53a.391.391,0,0,0,.085.35q1.738,2,3.464,4.014a.315.315,0,0,0,.282.124c.524-.028,1.047-.047,1.571-.071l1.315-.06c.081,0,.154,0,.16-.122q.068-1.425.147-2.849c.007-.124-.051-.155-.16-.165-1.086-.1-2.172-.2-3.259-.3-.257-.023-.257-.02-.243-.285q.089-1.634.177-3.269c.006-.1,0-.171-.133-.183-.632-.053-1.262-.115-1.893-.175-.326-.031-.652-.066-.993-.1Zm18.574-2.705a5.228,5.228,0,0,0-6.366-7.381Zm-1.875,2.135c.317-.283.616-.542.906-.81.209-.194.2-.2.018-.414l-5.695-6.6c-.283-.328-.562-.658-.852-.979-.039-.043-.155-.082-.185-.058-.378.295-.747.6-1.084.877Zm-17.44,6.105-.052,0-.366,2.678,2.567-.115.015-.056Z" transform="translate(-50.068 -58.654)"/>
      <path id="패스_12" data-name="패스 12" class="cls-1" d="M431.925,751.29h.187c1.091,0,2.182,0,3.274,0,.183,0,.226.059.22.229-.012.353,0,.707,0,1.061,0,.248,0,.248.257.248.476,0,.951,0,1.427,0,.144,0,.2.029.2.19-.006.416,0,.416-.411.417s-.854.006-1.28,0c-.155,0-.2.055-.2.2.007.39,0,.78,0,1.17,0,.136-.031.2-.183.195-1.116-.006-2.231,0-3.347,0-.1,0-.173-.006-.172-.143,0-1.158,0-2.317,0-3.475A.543.543,0,0,1,431.925,751.29Zm1.851.619c-.36,0-.719,0-1.079,0-.137,0-.179.046-.178.18q.007,1.051,0,2.1c0,.136.033.2.184.194q1.051-.01,2.1,0c.145,0,.19-.05.189-.191q-.007-1.051,0-2.1c0-.152-.061-.185-.2-.182C434.459,751.914,434.118,751.909,433.777,751.909Z" transform="translate(0 0)"/>
      <path id="패스_13" data-name="패스 13" class="cls-1" d="M782.944,751.305c.083,0,.143-.011.2-.011,1.1,0,2.195,0,3.292,0,.175,0,.213.058.212.219q-.009,1.637,0,3.274c0,.175-.061.214-.222.213q-1.637-.008-3.274,0c-.169,0-.219-.049-.215-.217.012-.39,0-.78.006-1.17,0-.133-.037-.182-.176-.18-.421.008-.841,0-1.262.005-.136,0-.178-.041-.178-.177,0-.429-.005-.429.419-.429.329,0,.659-.007.987,0,.158.005.214-.039.21-.2C782.937,752.195,782.944,751.762,782.944,751.305Zm.621,1.829c0,.353,0,.707,0,1.06,0,.136.031.195.182.193q1.051-.011,2.1,0c.158,0,.194-.057.193-.2q-.009-1.042,0-2.083c0-.141-.037-.192-.184-.191q-1.06.009-2.12,0c-.141,0-.175.052-.173.182C783.57,752.44,783.565,752.787,783.565,753.134Z" transform="translate(-323.848 -0.004)"/>
      <path id="패스_14" data-name="패스 14" class="cls-1" d="M804.336,1110.81h-.2c-1.091,0-2.183,0-3.274,0-.167,0-.222-.044-.217-.214.011-.378,0-.756.006-1.134,0-.141-.043-.209-.188-.19s-.2-.044-.187-.188a.763.763,0,0,0,0-.164c-.019-.175.021-.285.232-.254.131.019.143-.076.142-.177,0-.39.008-.781,0-1.171-.006-.175.059-.219.221-.214.329.01.659,0,.987.006.156.005.2-.052.193-.2-.011-.182,0-.365,0-.548a.356.356,0,0,1,.008-.1,3.857,3.857,0,0,1,.507-.047c.034,0,.093.1.1.153a5.413,5.413,0,0,1,0,.567c-.005.135.045.183.18.181.445-.006.89,0,1.335,0,.119,0,.174.027.174.163,0,1.134,0,2.268,0,3.4C804.348,1110.709,804.342,1110.745,804.336,1110.81Zm-1.831-.62c.354,0,.708,0,1.061,0,.13,0,.168-.046.168-.171q-.006-1.061,0-2.123c0-.132-.04-.184-.178-.183q-1.061.007-2.123,0c-.136,0-.18.051-.179.184q.006,1.061,0,2.123c0,.128.045.171.171.169C801.785,1110.187,802.145,1110.19,802.5,1110.19Z" transform="translate(-341.403 -328.943)"/>
      <path id="패스_15" data-name="패스 15" class="cls-1" d="M435.746,1110.844c-.555,0-1.11,0-1.665,0-.142,0-.192-.038-.192-.185q.007-1.665,0-3.33c0-.144.048-.192.191-.19.439.006.878,0,1.317,0,.144,0,.2-.045.187-.189-.011-.189,0-.378,0-.567,0-.1.033-.143.137-.141.581.01.468-.075.476.447.007.448,0,.448.442.448.244,0,.488.009.732,0,.171-.009.237.038.23.222-.014.384,0,.768-.006,1.153,0,.135.028.215.181.191s.2.044.185.186a.772.772,0,0,0,0,.165c.018.171-.014.29-.229.254-.122-.02-.136.063-.135.16,0,.4,0,.805,0,1.208,0,.128-.04.169-.167.167C436.868,1110.841,436.307,1110.844,435.746,1110.844Zm-.031-.62c.353,0,.707-.006,1.06,0,.146,0,.2-.034.2-.192-.008-.694-.007-1.389,0-2.083,0-.146-.037-.2-.193-.2q-1.041.01-2.083,0c-.147,0-.2.041-.2.2q.01,1.051,0,2.1c0,.134.039.183.177.18C435.021,1110.218,435.368,1110.224,435.715,1110.224Z" transform="translate(-1.841 -328.977)"/>
      <path id="패스_16" data-name="패스 16" class="cls-1" d="M824.477,805.57c0-.286,0-.573,0-.859,0-.112.022-.168.15-.165.574.013.459-.073.467.455.007.469,0,.939,0,1.408,0,.154-.037.217-.2.215-.415-.006-.415,0-.415-.413Z" transform="translate(-363.833 -49.361)"/>
      <path id="패스_17" data-name="패스 17" class="cls-1" d="M824.5,917.654c.184,0,.353-.007.521.006.035,0,.09.079.091.122.006.6,0,1.2.005,1.793,0,.11-.047.146-.154.151-.463.021-.463.024-.463-.437Z" transform="translate(-363.858 -154.187)"/>
      <path id="패스_18" data-name="패스 18" class="cls-1" d="M456.984,881.111c0-.28.005-.56,0-.84,0-.134.026-.194.179-.193.435,0,.435,0,.435.435,0,.487,0,.974,0,1.461,0,.133-.038.18-.176.181-.438,0-.437.008-.437-.423Z" transform="translate(-23.242 -119.364)"/>
      <path id="패스_19" data-name="패스 19" class="cls-1" d="M456.987,1070.609c0-.245,0-.463,0-.681,0-.408,0-.816,0-1.224,0-.125.035-.172.165-.168.533.016.442-.078.448.437.005.481,0,.963,0,1.443,0,.154-.05.207-.2.195C457.271,1070.6,457.139,1070.609,456.987,1070.609Z" transform="translate(-23.246 -294.025)"/>
      <path id="패스_20" data-name="패스 20" class="cls-1" d="M457.016,804.765c.183,0,.351-.007.518.006.034,0,.088.08.089.124.006.6.007,1.206,0,1.809,0,.044-.081.086-.126.129,0,0-.012,0-.018,0-.462.023-.462.023-.462-.433Z" transform="translate(-23.275 -49.562)"/>
      <path id="패스_21" data-name="패스 21" class="cls-1" d="M825.088,880.974c0,.292,0,.585,0,.877,0,.119-.046.157-.162.162-.456.018-.456.022-.456-.426,0-.493,0-.987,0-1.48,0-.126.035-.172.165-.169.546.014.443-.071.453.432C825.092,880.571,825.088,880.773,825.088,880.974Z" transform="translate(-363.828 -119.234)"/>
      <path id="패스_22" data-name="패스 22" class="cls-1" d="M457.016,957.521V955.83c0-.382,0-.374.387-.385.175-.005.232.046.228.224-.01.554-.008,1.109,0,1.664,0,.141-.037.2-.185.19C457.313,957.513,457.179,957.521,457.016,957.521Z" transform="translate(-23.275 -189.214)"/>
      <path id="패스_23" data-name="패스 23" class="cls-1" d="M457.016,993.158a4.546,4.546,0,0,1,.486.006.182.182,0,0,1,.119.131c.008.6,0,1.194.006,1.791,0,.1-.033.138-.137.144-.475.029-.475.032-.475-.44v-1.632Z" transform="translate(-23.275 -224.162)"/>
      <path id="패스_24" data-name="패스 24" class="cls-1" d="M824.484,993.892c0-.293,0-.585,0-.878,0-.1.028-.138.134-.144.484-.028.484-.031.484.457s0,.951,0,1.426c0,.14-.041.193-.187.194-.431,0-.431.007-.431-.415Z" transform="translate(-363.84 -223.89)"/>
      <path id="패스_25" data-name="패스 25" class="cls-1" d="M824.5,1030.7c.184,0,.347-.007.509.005a.154.154,0,0,1,.1.111c.006.608,0,1.216,0,1.824a.047.047,0,0,1,0,.018c-.1.236-.309.064-.461.109-.08.024-.154,0-.154-.117C824.5,1032.015,824.5,1031.377,824.5,1030.7Z" transform="translate(-363.851 -258.961)"/>
      <path id="패스_26" data-name="패스 26" class="cls-1" d="M457,918.835c0-.292,0-.585,0-.877,0-.109.034-.152.146-.15.566.013.458-.076.466.436.007.487,0,.974,0,1.461,0,.137-.045.177-.18.177-.434,0-.434.006-.434-.426Q457,919.146,457,918.835Z" transform="translate(-23.254 -154.332)"/>
      <path id="패스_27" data-name="패스 27" class="cls-1" d="M825.083,956.344c0,.286,0,.573,0,.859,0,.126-.045.168-.171.171-.447.011-.447.015-.447-.435,0-.487,0-.975,0-1.461,0-.134.036-.179.175-.179.444,0,.444-.006.444.442Q825.083,956.043,825.083,956.344Z" transform="translate(-363.823 -189.078)"/>
      <path id="패스_28" data-name="패스 28" class="cls-1" d="M457,1032.9c-.006-.065-.014-.106-.014-.148,0-.585,0-1.17,0-1.755,0-.123.032-.169.163-.17.45,0,.45-.009.45.435,0,.488,0,.975,0,1.463,0,.135-.041.188-.178.178S457.148,1032.9,457,1032.9Z" transform="translate(-23.247 -259.079)"/>
      <path id="패스_29" data-name="패스 29" class="cls-1" d="M824.474,1069.417c0-.292,0-.584,0-.876,0-.121.042-.159.159-.156.557.013.451-.074.458.443.006.475,0,.95,0,1.424,0,.163-.055.208-.212.207-.407,0-.407,0-.407-.4Z" transform="translate(-363.83 -293.886)"/>
      <path id="패스_30" data-name="패스 30" class="cls-1" d="M457.183,842.409a4.458,4.458,0,0,1,.474.006.181.181,0,0,1,.12.129c.008.6.007,1.206,0,1.809a.156.156,0,0,1-.094.118c-.162.013-.325.006-.5.006Z" transform="translate(-23.429 -84.449)"/>
      <path id="패스_31" data-name="패스 31" class="cls-1" d="M824.468,843.275c0-.286.006-.573,0-.859,0-.13.042-.169.168-.166.545.013.443-.071.449.435.006.475,0,.95,0,1.426,0,.152-.033.218-.2.215-.417-.006-.417,0-.417-.412Z" transform="translate(-363.824 -84.306)"/>
      <path id="패스_32" data-name="패스 32" class="cls-1" d="M631.619,772.28c.286,0,.573,0,.859,0,.114,0,.16.032.163.155.011.45.016.45-.431.45-.481,0-.963,0-1.444,0-.144,0-.2-.031-.2-.191.007-.415,0-.415.415-.415Z" transform="translate(-184.118 -19.455)"/>
      <path id="패스_33" data-name="패스 33" class="cls-1" d="M744.689,772.867c-.292,0-.585,0-.877,0-.109,0-.152-.037-.15-.148.013-.556-.076-.448.426-.455.487-.007.975,0,1.462,0,.144,0,.188.044.187.188,0,.419,0,.419-.409.419Z" transform="translate(-288.936 -19.44)"/>
      <path id="패스_34" data-name="패스 34" class="cls-1" d="M518.559,772.866c-.293,0-.585,0-.878,0-.108,0-.153-.034-.15-.148.014-.556-.082-.448.445-.456.481-.007.963,0,1.444,0,.145,0,.188.044.187.188,0,.419,0,.419-.409.419Z" transform="translate(-79.36 -19.439)"/>
      <path id="패스_35" data-name="패스 35" class="cls-1" d="M763.67,1140.379c-.292,0-.584,0-.876,0-.124,0-.174-.041-.171-.169.012-.523-.07-.429.43-.435s.973,0,1.46,0c.145,0,.191.045.187.188-.013.5.063.41-.41.418C764.084,1140.382,763.877,1140.379,763.67,1140.379Z" transform="translate(-306.509 -360.046)"/>
      <path id="패스_36" data-name="패스 36" class="cls-1" d="M708.051,772.269c0,.185.007.349-.006.51,0,.034-.078.089-.12.089-.6.006-1.207,0-1.81.005-.106,0-.136-.046-.134-.144.013-.56-.083-.451.441-.459.469-.007.939,0,1.408,0Z" transform="translate(-254.014 -19.445)"/>
      <path id="패스_37" data-name="패스 37" class="cls-1" d="M556.227,772.281c.292,0,.585,0,.877,0,.113,0,.161.03.164.154.011.451.016.451-.431.451-.481,0-.963,0-1.444,0-.144,0-.2-.031-.2-.19.005-.416,0-.416.414-.416Z" transform="translate(-114.263 -19.456)"/>
      <path id="패스_38" data-name="패스 38" class="cls-1" d="M537.537,1140.38c-.292,0-.584,0-.876,0-.127,0-.171-.046-.168-.172.013-.515-.069-.427.414-.433s.974,0,1.461,0c.145,0,.2.033.2.191,0,.416,0,.416-.413.416Z" transform="translate(-96.933 -360.047)"/>
      <path id="패스_39" data-name="패스 39" class="cls-1" d="M575.229,1140.38c-.292,0-.584,0-.875,0-.124,0-.174-.04-.171-.169.012-.524-.067-.43.429-.436s.973,0,1.459,0c.144,0,.192.043.188.187-.014.5.065.411-.409.419C575.643,1140.383,575.436,1140.38,575.229,1140.38Z" transform="translate(-131.864 -360.047)"/>
      <path id="패스_40" data-name="패스 40" class="cls-1" d="M650.6,1140.381c-.292,0-.584,0-.876,0-.126,0-.172-.045-.169-.172.013-.514-.068-.428.414-.433s.974,0,1.46,0c.143,0,.206.03.2.19,0,.417,0,.417-.414.417Z" transform="translate(-201.719 -360.049)"/>
      <path id="패스_41" data-name="패스 41" class="cls-1" d="M725.982,1140.383c-.286,0-.572,0-.857,0-.131,0-.186-.037-.182-.176.014-.51-.068-.423.419-.428s.985,0,1.478,0c.135,0,.178.041.179.176,0,.43.008.43-.416.43Z" transform="translate(-271.587 -360.05)"/>
      <path id="패스_42" data-name="패스 42" class="cls-1" d="M669.31,772.278c.292,0,.585,0,.877,0,.119,0,.156.04.159.159.01.447.014.447-.434.447-.487,0-.975,0-1.462,0-.134,0-.179-.039-.179-.177,0-.43-.006-.43.418-.43Z" transform="translate(-219.063 -19.454)"/>
      <path id="패스_43" data-name="패스 43" class="cls-1" d="M593.941,772.87c-.293,0-.585,0-.878,0-.1,0-.157-.026-.154-.144.015-.563-.084-.452.44-.46.482-.007.963,0,1.445,0,.138,0,.192.033.191.183,0,.424,0,.424-.422.424Z" transform="translate(-149.22 -19.443)"/>
      <path id="패스_44" data-name="패스 44" class="cls-1" d="M499.882,1139.791c.286,0,.573,0,.859,0,.12,0,.16.044.158.161-.011.537.069.437-.421.443s-.975,0-1.462,0c-.143,0-.193-.047-.189-.19.013-.494-.06-.408.416-.416C499.455,1139.787,499.669,1139.791,499.882,1139.791Z" transform="translate(-62.023 -360.062)"/>
      <path id="패스_45" data-name="패스 45" class="cls-1" d="M612.923,1139.791c.293,0,.585,0,.878,0,.12,0,.16.044.158.161-.011.538.069.438-.421.444s-.975,0-1.463,0c-.143,0-.193-.046-.189-.19.014-.492-.063-.408.416-.416C612.508,1139.788,612.716,1139.791,612.923,1139.791Z" transform="translate(-166.806 -360.062)"/>
      <path id="패스_46" data-name="패스 46" class="cls-1" d="M688.3,1140.38c-.286,0-.573,0-.859,0-.115,0-.166-.038-.164-.158.008-.542-.058-.439.423-.445s.975,0,1.462,0c.143,0,.193.041.189.187-.015.5.066.411-.411.419C688.722,1140.384,688.509,1140.38,688.3,1140.38Z" transform="translate(-236.675 -360.048)"/>
    </g>
  </g>
</svg>
