<svg xmlns="http://www.w3.org/2000/svg" width="23.518" height="25.601" viewBox="0 0 23.518 25.601">
  <defs>
    <style>
      .cls-1 {
        fill: #676767;
        stroke: #676767;
        stroke-miterlimit: 10;
        stroke-width: 0.4px;
      }
    </style>
  </defs>
  <g id="그룹_13" data-name="그룹 13" transform="translate(-299.018 -743.386)">
    <path id="패스_9" data-name="패스 9" class="cls-1" d="M412.517,479.512a6.51,6.51,0,1,1,8.75,0l.3.144a11.374,11.374,0,0,1,6.876,10.445,6.972,6.972,0,0,1-.068,1.539,2.18,2.18,0,0,1-2.035,1.745c-.091.006-.183.008-.274.008q-9.162,0-18.323,0a2.248,2.248,0,0,1-2.386-2.111,14.067,14.067,0,0,1,.013-1.752,11.4,11.4,0,0,1,5.928-9.41C411.687,479.894,412.107,479.715,412.517,479.512Zm4.361,13.058h7.457c.641,0,1.283.014,1.924-.008a1.375,1.375,0,0,0,1.354-1.337,14.21,14.21,0,0,0-.084-2.365,10.575,10.575,0,0,0-7.059-8.756.874.874,0,0,1-.463-.385c-.113-.255.137-.393.318-.538a5.457,5.457,0,0,0,2.163-5.457,5.608,5.608,0,0,0-6.676-4.618,5.673,5.673,0,0,0-4.573,6.046,5.6,5.6,0,0,0,2.3,4.089c.19.143.358.314.239.538a.842.842,0,0,1-.441.328,10.663,10.663,0,0,0-5.51,4.39,11.017,11.017,0,0,0-1.663,6.413,1.482,1.482,0,0,0,1.672,1.661Z" transform="translate(-106.118 275.391)"/>
  </g>
</svg>
