<svg xmlns="http://www.w3.org/2000/svg" width="23.001" height="24.448" viewBox="0 0 23.001 24.448">
  <defs>
    <style>
      .cls-1 {
        fill: none;
        stroke: #ff9045;
        stroke-linecap: round;
        stroke-miterlimit: 10;
        stroke-width: 1.5px;
      }
    </style>
  </defs>
  <path id="패스_10" data-name="패스 10" class="cls-1" d="M533.567,557.321h-6.1v-6.89c.006-.076-9.354-.066-9.293-.025,0,3.243,0,3.376,0,6.619v.3h-6.1v-.254q0-7.224,0-14.447a.437.437,0,0,1,.2-.4q5.171-3.869,10.333-7.751a.3.3,0,0,1,.429,0q5.161,3.883,10.332,7.753a.391.391,0,0,1,.205.346q-.01,7.272-.005,14.544Z" transform="translate(-511.321 -533.622)"/>
</svg>
